<?xml version="1.0" ?><!DOCTYPE svg  PUBLIC '-//W3C//DTD SVG 1.1//EN'  'http://www.w3.org/Graphics/SVG/1.1/DTD/svg11.dtd'><svg enable-background="new 0 0 60 60" height="60px" id="Layer_1" version="1.1" viewBox="0 0 60 60" width="60px" xml:space="preserve" xmlns="http://www.w3.org/2000/svg" xmlns:xlink="http://www.w3.org/1999/xlink"><linearGradient gradientUnits="userSpaceOnUse" id="SVGID_1_" x1="30" x2="30" y1="8" y2="52"><stop offset="0" style="stop-color:#5FC2FF"/><stop offset="1" style="stop-color:#004A77"/></linearGradient><path d="M47,52H13c-2.8,0-5-2.2-5-5V13c0-2.8,2.2-5,5-5h34c2.8,0,5,2.2,5,5v34C52,49.8,49.8,52,47,52z" fill="url(#SVGID_1_)"/><g><path d="M12.6,43.2c-0.3,0-0.6-0.3-0.6-0.6V32.2c0-2,1-3.7,2.6-4.8C13,26.3,12,24.6,12,22.6c0-3.2,2.6-5.8,5.8-5.8   c3.2,0,5.8,2.6,5.8,5.8c0,2-1,3.7-2.6,4.8c1.6,1,2.6,2.8,2.6,4.8v10.4c0,0.3-0.3,0.6-0.6,0.6H12.6z" fill="#1ABC9C"/><path d="M17.8,17.4c2.9,0,5.2,2.3,5.2,5.2c0,2.2-1.3,4-3.2,4.8c1.9,0.8,3.2,2.6,3.2,4.8v10.4H12.6V32.2   c0-2.2,1.3-4,3.2-4.8c-1.9-0.8-3.2-2.6-3.2-4.8C12.6,19.7,15,17.4,17.8,17.4 M17.8,16.2c-3.5,0-6.4,2.9-6.4,6.4   c0,1.9,0.8,3.6,2.2,4.8c-1.4,1.2-2.2,2.9-2.2,4.8v10.4c0,0.6,0.5,1.2,1.2,1.2H23c0.6,0,1.2-0.5,1.2-1.2V32.2c0-1.9-0.8-3.6-2.2-4.8   c1.4-1.2,2.2-2.9,2.2-4.8C24.2,19.1,21.3,16.2,17.8,16.2L17.8,16.2z" fill="#353535"/></g><g><path d="M37,43.2c-0.3,0-0.6-0.3-0.6-0.6V32.2c0-2,1-3.7,2.6-4.8c-1.6-1.1-2.6-2.8-2.6-4.8c0-3.2,2.6-5.8,5.8-5.8   c3.2,0,5.8,2.6,5.8,5.8c0,2-1,3.7-2.6,4.8c1.6,1,2.6,2.8,2.6,4.8v10.4c0,0.3-0.3,0.6-0.6,0.6H37z" fill="#9B59B6"/><path d="M42.2,17.4c2.9,0,5.2,2.3,5.2,5.2c0,2.2-1.3,4-3.2,4.8c1.9,0.8,3.2,2.6,3.2,4.8v10.4H37V32.2   c0-2.2,1.3-4,3.2-4.8c-1.9-0.8-3.2-2.6-3.2-4.8C37,19.7,39.3,17.4,42.2,17.4 M42.2,16.2c-3.5,0-6.4,2.9-6.4,6.4   c0,1.9,0.8,3.6,2.2,4.8c-1.4,1.2-2.2,2.9-2.2,4.8v10.4c0,0.6,0.5,1.2,1.2,1.2h10.4c0.6,0,1.2-0.5,1.2-1.2V32.2   c0-1.9-0.8-3.6-2.2-4.8c1.4-1.2,2.2-2.9,2.2-4.8C48.5,19.1,45.7,16.2,42.2,16.2L42.2,16.2z" fill="#353535"/></g><g><path d="M23,47.8c-0.4,0-0.8-0.4-0.8-0.8V32.9c0-2.6,1.3-5,3.5-6.4c-2.1-1.4-3.5-3.8-3.5-6.5c0-4.3,3.5-7.8,7.8-7.8   c4.3,0,7.8,3.5,7.8,7.8c0,2.7-1.3,5.1-3.5,6.5c2.2,1.4,3.5,3.8,3.5,6.4V47c0,0.4-0.4,0.8-0.8,0.8H23z" fill="#E74C3C"/><path d="M30,13c3.9,0,7,3.1,7,7c0,2.9-1.8,5.5-4.4,6.5c2.6,1,4.4,3.5,4.4,6.4V47H23V32.9c0-2.9,1.8-5.4,4.4-6.4   c-2.6-1-4.4-3.5-4.4-6.5C23,16.1,26.1,13,30,13 M30,11.4c-4.7,0-8.6,3.8-8.6,8.6c0,2.5,1.1,4.9,3,6.5c-1.8,1.6-3,3.9-3,6.4V47   c0,0.9,0.7,1.6,1.6,1.6h14c0.9,0,1.6-0.7,1.6-1.6V32.9c0-2.5-1.1-4.9-3-6.4c1.8-1.6,3-3.9,3-6.5C38.6,15.3,34.7,11.4,30,11.4   L30,11.4z" fill="#353535"/></g></svg>